<svg width="1000" height="1000" viewBox="0 0 1000 1000" fill="none" xmlns="http://www.w3.org/2000/svg">
<path fill-rule="evenodd" clip-rule="evenodd" d="M0 500L500 0L1000 500L500 1000L0 500ZM5 500L500 995L995 500L500 5L5 500Z" fill="white"/>
<path fill-rule="evenodd" clip-rule="evenodd" d="M60 500L500 60L940 500L500 940L60 500ZM65 500L500 935L935 500L500 65L65 500Z" fill="white"/>
<path fill-rule="evenodd" clip-rule="evenodd" d="M120 500L500 120L880 500L500 880L120 500ZM125 500L500 875L875 500L500 125L125 500Z" fill="white"/>
<path fill-rule="evenodd" clip-rule="evenodd" d="M180 500L500 180L820 500L500 820L180 500ZM185 500L500 815L815 500L500 185L185 500Z" fill="white"/>
<path fill-rule="evenodd" clip-rule="evenodd" d="M240 500L500 240L760 500L500 760L240 500ZM245 500L500 755L755 500L500 245L245 500Z" fill="white"/>
<path fill-rule="evenodd" clip-rule="evenodd" d="M300 500L500 300L700 500L500 700L300 500ZM305 500L500 695L695 500L500 305L305 500Z" fill="white"/>
<path fill-rule="evenodd" clip-rule="evenodd" d="M360 500L500 360L640 500L500 640L360 500ZM365 500L500 635L635 500L500 365L365 500Z" fill="white"/>
<path fill-rule="evenodd" clip-rule="evenodd" d="M420 500L500 420L580 500L500 580L420 500ZM425 500L500 575L575 500L500 425L425 500Z" fill="white"/>
</svg>
